<?xml version="1.0" encoding="utf-8"?>
<!-- Generator: Adobe Illustrator 21.0.0, SVG Export Plug-In . SVG Version: 6.00 Build 0)  -->
<svg version="1.1" id="Слой_1" xmlns="http://www.w3.org/2000/svg" xmlns:xlink="http://www.w3.org/1999/xlink" x="0px" y="0px"
	 viewBox="0 0 454.8 61.5" style="enable-background:new 0 0 454.8 61.5;" xml:space="preserve">
<style type="text/css">
	.st0{fill:url(#SVGID_1_);}
	.st1{fill:#FFFFFF;}
</style>
<title>logo</title>
<g id="Слой_1_1_">
	
		<linearGradient id="SVGID_1_" gradientUnits="userSpaceOnUse" x1="256.7957" y1="-168.0802" x2="257.4257" y2="-238.6502" gradientTransform="matrix(1 0 0 -1 -169.29 -172.12)">
		<stop  offset="0" style="stop-color:#E81818"/>
		<stop  offset="1" style="stop-color:#9B0202"/>
	</linearGradient>
	<path class="st0" d="M42.6,57.3c0,0-14.2-0.4-16-0.6c-0.6,1.1-1.9,1.6-3,1.1c0,0-4.4-0.9-6.3-1.5s-1-2.9-1-2.9s1.7-4.5,3-7.5
		s3.2-2.4,3.2-2.4l20.2,0.5v-6.8l-20-1.1l-1.8-4.7c10.7,0.9,22,1.2,22,1.2l-0.2-17.2L13,16.4l6.7-13.6l155.9-1.1
		c0,0-145-1.5-150.4-1.6s-5.2,0.2-6.6,1.6s-7.2,14.8-7.2,14.8l-0.7-1.6l0.7-1c1-4.2-0.8-3.2-2.8-3.3s-2.8,0.6-4,2.6S8,15.7,8,15.7
		s1-0.1,1.2,1.9c-3.4,2.2-6.2,5.3-8.1,8.9c-2.3,4.5-0.3,29.9,0,32.6s13.1,2.4,13.1,2.4l59.8-1L42.6,59L42.6,57.3z M27.6,18.2
		l2.8-0.6l0.4,4.9l-5.8-0.5L27.6,18.2z M17.8,31.1l2.2,4.8h-0.3l-5.8,1.3l-9.1-3.6L3.9,29C6.7,29.9,12,30.5,17.8,31.1L17.8,31.1z
		 M4.4,42.2C5.5,40.4,18,42.7,18,42.7l-4.8,0.4c0,0-1.9,5.5-3.8,7.9s-5.3,1.5-5.3,1.5S3.3,43.9,4.4,42.2L4.4,42.2z M2.5,54.4
		c-0.7,2,2.9,3.4,17.6,5.1C12.5,59.6-2.5,57.6,2.5,54.4L2.5,54.4z"/>
	<path class="st1" d="M80.5,43.1c2.2-0.5,4.3-1.2,6.4-2.1l-1.7,9.8c-4.4,1.8-9,2.7-13.8,2.7c-5.2,0-9-1.5-11.3-4.5
		c-2.3-3-3-7.2-2-12.7c0.8-4.9,2.6-9.5,5.1-13.8l-3.9-1.3h18.1c-1.7,1.6-3.1,3.5-4.2,5.5c-1.5,2.8-2.5,5.9-3.1,9
		c-0.5,2.7-0.3,4.7,0.6,6s2.4,2,4.5,2C77,43.7,78.8,43.5,80.5,43.1z M86.5,8c-1.9,0-3.9,0.2-5.8,0.7H62.3l10.3,3.5
		c-2.3,1.5-4.3,3.4-6.1,5.5h30l1.3-2c1.3-1.9,0.8-4.4-1.1-5.7c-0.2-0.2-0.5-0.3-0.7-0.4C92.9,8.5,89.7,8,86.5,8L86.5,8z"/>
	<path class="st1" d="M370.8,21.2c0,1.3-0.2,2.6-0.4,3.8c-0.9,5.2-2.8,10.2-5.6,14.7c-2.5,4.2-6,7.7-10.1,10.2
		c-3.9,2.4-8.3,3.6-12.9,3.5c-5.4,0-9.3-1.5-11.8-4.5c-2.4-3-3.2-7.2-2.2-12.5c0.9-5,2.6-9.7,5.3-14l-3.9-1.3h18
		c-1.8,1.8-3.2,3.9-4.3,6.1c-1.5,2.9-2.5,5.9-3.1,9.1c-0.9,4.9,0.7,7.3,4.8,7.3c2.2-0.1,4.2-1,5.8-2.5c2.1-1.9,3.8-4.2,5-6.8
		c1.5-2.9,2.5-6.1,3-9.3c0.3-1.3,0.3-2.7,0-4L370.8,21.2z M336.6,17.8h34c-0.3-1.9-1.1-3.7-2.3-5.2c-2.4-3-6.2-4.5-11.4-4.5
		c-2,0-3.9,0.2-5.8,0.7h-18.7l10.3,3.6C340.4,13.8,338.4,15.7,336.6,17.8z"/>
	<path class="st1" d="M284.3,21.2c0,1.3-0.2,2.6-0.4,3.8c-0.9,5.2-2.8,10.2-5.6,14.7c-2.5,4.2-6,7.7-10.1,10.2
		c-3.9,2.4-8.3,3.6-12.9,3.5c-5.4,0-9.3-1.5-11.8-4.5c-2.4-3-3.2-7.2-2.2-12.5c0.9-5,2.6-9.7,5.3-14l-3.9-1.3h18
		c-1.8,1.8-3.2,3.9-4.3,6.1c-1.5,2.9-2.5,5.9-3.1,9.1c-0.9,4.9,0.7,7.3,4.8,7.3c2.2-0.1,4.2-1,5.8-2.5c2.1-1.9,3.8-4.2,5-6.8
		c1.5-2.9,2.5-6.1,3-9.3c0.3-1.3,0.3-2.7,0-4L284.3,21.2z M250.1,17.8h34c-0.3-1.9-1.1-3.7-2.3-5.2c-2.4-3-6.2-4.5-11.4-4.5
		c-2,0-3.9,0.2-5.8,0.7h-18.7l10.4,3.6C254,13.8,251.9,15.7,250.1,17.8L250.1,17.8z"/>
	<path class="st1" d="M386.7,13.3l-11.7-4h24.9c5.1,0,8.8,1,11.1,3c1.7,1.5,2.7,3.7,2.7,6h-29L386.7,13.3z M401.5,22.2
		c-0.2,1.8-1.1,3.4-2.5,4.6c-1.4,1.1-3.1,1.7-4.8,1.6h-1.5l2.6-6.6h-16l3.7,1.2l-11.7,30.4h11.8l6.2-16.1h2.2l3.1,16.1h12.9
		l-0.7-2.9l-4-15.6c2.9-1.1,5.4-3,7.3-5.4c1.8-2.3,3-5,3.5-7.9h-11.9C401.6,21.9,401.5,22.1,401.5,22.2z"/>
	<path class="st1" d="M454.1,15.3l-1.5,2.4h-25.1c0.5-1.1,1.2-2.1,1.9-3c1-1.2,2.2-2.3,3.5-3.2l-8.2-2.8h14.5
		c1.7-0.4,3.4-0.6,5.1-0.6c2.6,0,5.3,0.4,7.8,1.1c2.1,0.7,3.3,3.1,2.5,5.2C454.4,14.8,454.3,15,454.1,15.3z M441.8,27.1
		c-1.2-1-2.3-2.1-3.2-3.4c-0.5-0.8-0.7-1.6-0.5-2.5h-16.4l4.4,1.5c-0.3,1.9-0.1,3.8,0.6,5.6c0.9,2.2,2.3,4.2,4.1,5.8
		c1.1,1,2.1,2,3,3.1c0.3,0.4,0.6,0.9,0.8,1.4c0.2,0.5,0.2,1,0.1,1.5c-0.2,1.1-0.7,2-1.6,2.7c-1.1,0.7-2.3,1-3.5,0.9
		c-2,0-3.9-0.4-5.8-1.1c-1.9-0.6-3.7-1.5-5.3-2.7l-1.8,10.6c1.4,1,3,1.8,4.7,2.2c2,0.5,4.1,0.8,6.2,0.7c5.3,0,9.6-1.2,13-3.7
		c3.4-2.5,5.7-6.3,6.3-10.4c0.5-2.2,0.3-4.5-0.6-6.6C445.2,30.5,443.7,28.6,441.8,27.1L441.8,27.1z"/>
	<path class="st1" d="M191.9,13.3l-11.7-4h24c2.3,0,4.1,1.8,4.1,4.1c0,0.2,0,0.5-0.1,0.7l-0.7,4.2H190L191.9,13.3z M223.8,9.3
		l-5.7,9h18.1l1.3-3.4c0.8-2.1-0.2-4.5-2.3-5.3c-0.5-0.2-1-0.3-1.5-0.3L223.8,9.3z M184.5,21.8l3.7,1.2l-11.8,30.4h10.5l6.2-16.2
		c0.7-1.9,2.5-7.1,5.3-15.5L184.5,21.8z M215.8,21.8l-12,18.9h-0.2l3.3-18.9h-8.2l-5.5,31.7h11.2l20.1-31.7H215.8z M223.8,23.7
		c-1.9,4.2-3.8,8.6-5.6,13.2l-6.4,16.6h10.6l12.3-31.7h-10.1L223.8,23.7z"/>
	<path class="st1" d="M149.6,15l-1.3,3.4h-10.5l3.5-9h4.5c2.3,0,4.1,1.9,4.1,4.1C149.9,14,149.8,14.5,149.6,15z M109.5,18.4h18.2
		l-0.6-5.4c-0.2-2.1-2-3.7-4.1-3.6h-22.8l11.3,3.8L109.5,18.4z M134.1,27.8c-1,2.7-2.3,6.5-3.7,11.2h-0.3l-2-17.2h-23.7l3.2,1.1
		L95.9,53.5h10.5l7.1-18.4c1-2.6,2.3-6.8,3.9-12.6h0.3l3.3,31h13.7l12.2-31.7h-10.5L134.1,27.8z"/>
	<path class="st1" d="M298,21.8l4.2,1.4l-11.6,30.2h11.8l12.1-31.7H298L298,21.8z M298,9.3h-13.3l11.7,4l-2,5h31l1.3-3.4
		c0.8-2.1-0.2-4.5-2.3-5.3c-0.5-0.2-1-0.3-1.5-0.3L298,9.3z"/>
</g>
</svg>
