<svg id="Слой_1" data-name="Слой 1" xmlns="http://www.w3.org/2000/svg" xmlns:xlink="http://www.w3.org/1999/xlink" viewBox="0 0 454.78 61.54"><defs><linearGradient id="Безымянный_градиент" x1="256.8" y1="-168.08" x2="257.43" y2="-238.65" gradientTransform="matrix(1, 0, 0, -1, -169.29, -172.12)" gradientUnits="userSpaceOnUse"><stop offset="0" stop-color="#e81818"/><stop offset="1" stop-color="#9b0202"/></linearGradient></defs><title>logo-black</title><g id="Слой_1-2" data-name="Слой 1"><path d="M80.47,43.11A46.16,46.16,0,0,0,86.88,41l-1.71,9.75a35.78,35.78,0,0,1-13.76,2.72q-7.85,0-11.31-4.49t-2-12.7a40.35,40.35,0,0,1,5.1-13.77l-3.9-1.33H77.39a21.06,21.06,0,0,0-4.16,5.53,29.69,29.69,0,0,0-3.06,9q-.71,4,.63,6t4.51,2A22.94,22.94,0,0,0,80.47,43.11ZM86.47,8a25.21,25.21,0,0,0-5.76.69H62.29l10.3,3.51a28.57,28.57,0,0,0-6.07,5.51h30l1.3-2A4.11,4.11,0,0,0,96,9.66,25.91,25.91,0,0,0,86.48,8Z" transform="translate(0.03 0)"/><path d="M370.82,21.2a25.25,25.25,0,0,1-.39,3.83,40.66,40.66,0,0,1-5.57,14.69,30.5,30.5,0,0,1-10.08,10.21,24.56,24.56,0,0,1-12.88,3.55q-8.12,0-11.76-4.5t-2.24-12.5a39.76,39.76,0,0,1,5.26-14l-3.86-1.32h18a23.85,23.85,0,0,0-4.35,6.13,32.07,32.07,0,0,0-3.08,9.09q-1.28,7.31,4.76,7.31a8.88,8.88,0,0,0,5.77-2.51,21.79,21.79,0,0,0,5-6.76,33.3,33.3,0,0,0,3-9.3,10,10,0,0,0,0-4Zm-34.21-3.44h34a11.59,11.59,0,0,0-2.3-5.24Q364.73,8,356.88,8a25.82,25.82,0,0,0-5.81.69h-18.7l10.34,3.56A29.55,29.55,0,0,0,336.61,17.76Z" transform="translate(0.03 0)"/><path d="M284.34,21.2a25.25,25.25,0,0,1-.39,3.83,40.66,40.66,0,0,1-5.57,14.69A30.5,30.5,0,0,1,268.3,49.93a24.56,24.56,0,0,1-12.88,3.55q-8.12,0-11.76-4.5t-2.24-12.5a39.76,39.76,0,0,1,5.26-14l-3.86-1.32h18a23.85,23.85,0,0,0-4.35,6.13,32.07,32.07,0,0,0-3.08,9.09q-1.28,7.31,4.76,7.31a8.88,8.88,0,0,0,5.77-2.51,21.79,21.79,0,0,0,5-6.76,33.3,33.3,0,0,0,3-9.3,10,10,0,0,0,0-4Zm-34.21-3.44h34a11.59,11.59,0,0,0-2.3-5.24Q278.25,8,270.4,8a25.82,25.82,0,0,0-5.81.69h-18.7l10.41,3.55a29.55,29.55,0,0,0-6.18,5.48Z" transform="translate(0.03 0)"/><path d="M386.65,13.33,375,9.33h24.91q7.61,0,11.13,3a7.9,7.9,0,0,1,2.68,6h-29Zm14.87,8.87a7.41,7.41,0,0,1-2.5,4.61,7.33,7.33,0,0,1-4.85,1.64h-1.54l2.56-6.64h-16l3.66,1.25L371.13,53.48h11.81l6.22-16.06h2.2l3.08,16.06h12.87l-.7-2.9-4-15.58a17.38,17.38,0,0,0,7.31-5.35,18,18,0,0,0,3.5-7.85H401.56C401.55,21.94,401.54,22.06,401.52,22.2Z" transform="translate(0.03 0)"/><path d="M454.12,15.31l-1.54,2.45h-25.1a15.72,15.72,0,0,1,1.9-3,16.35,16.35,0,0,1,3.46-3.19l-8.21-2.8h14.48a21,21,0,0,1,5.09-.63A25.82,25.82,0,0,1,452,9.26a4.1,4.1,0,0,1,2.13,6.05ZM441.84,27.15a17.22,17.22,0,0,1-3.25-3.43A3.82,3.82,0,0,1,438,21.2H421.62l4.44,1.52a12.11,12.11,0,0,0,.57,5.61,15.35,15.35,0,0,0,4.12,5.8,41.94,41.94,0,0,1,3,3.13,5,5,0,0,1,.78,1.42,3.09,3.09,0,0,1,.09,1.52A4,4,0,0,1,433,42.86a6,6,0,0,1-3.54.94,17.32,17.32,0,0,1-5.75-1.09A21.48,21.48,0,0,1,418.38,40l-1.85,10.57a13.5,13.5,0,0,0,4.72,2.16,24.19,24.19,0,0,0,6.15.74q7.94,0,13-3.73a15.75,15.75,0,0,0,6.31-10.44,11.7,11.7,0,0,0-.56-6.64,15,15,0,0,0-4.31-5.53Z" transform="translate(0.03 0)"/><path d="M191.91,13.33l-11.69-4h24a4.12,4.12,0,0,1,4.06,4.83l-.73,4.2H190Zm31.86-4-5.74,9h18.11l1.33-3.41a4.12,4.12,0,0,0-3.84-5.62ZM184.49,21.8,188.15,23,176.4,53.48h10.51l6.25-16.21q1.07-2.87,5.3-15.46Zm31.35,0-12,18.87h-.24l3.3-18.87h-8.19l-5.54,31.67h11.17l20.1-31.67Zm8,1.93Q221,30,218.28,36.89l-6.43,16.58h10.6L234.77,21.8H224.71Z" transform="translate(0.03 0)"/><path d="M149.61,15l-1.32,3.42H137.76l3.51-9h4.5A4.12,4.12,0,0,1,149.61,15Zm-40.15,3.42h18.25L127.09,13A4.12,4.12,0,0,0,123,9.34H100.2l11.26,3.84Zm24.62,9.45Q132.52,31.9,130.4,39h-.27l-2-17.21H104.47l3.24,1.07L95.89,53.48H106.4l7.12-18.42q1.52-3.83,3.93-12.62h.26l3.3,31h13.7l12.24-31.67H136.42Z" transform="translate(0.03 0)"/><path d="M298,21.81l4.16,1.42L290.59,53.48H302.4l12.13-31.67H298Zm0-12.47H284.71l11.68,4-2,5h31l1.34-3.39a4.12,4.12,0,0,0-3.83-5.64Z" transform="translate(0.03 0)"/></g><path d="M42.62,57.3s-14.21-.38-16-.64a2.44,2.44,0,0,1-3,1.15s-4.44-.89-6.33-1.53-1-2.94-1-2.94,1.67-4.47,3-7.54,3.22-2.43,3.22-2.43l20.2.51V37.12L22.71,36,20.9,31.33c10.7.86,22,1.18,22,1.18l-.19-17.23L13,16.4,19.62,2.77,175.47,1.62S30.47.12,25.12,0s-5.24.19-6.58,1.63S11.3,16.4,11.3,16.4l-.67-1.63.67-1c1-4.21-.78-3.19-2.78-3.32s-2.78.64-4,2.55S8,15.68,8,15.68s1-.13,1.22,1.92a23.53,23.53,0,0,0-8.1,8.94c-2.33,4.47-.33,29.88,0,32.57s13.1,2.43,13.1,2.43l59.83-1L42.6,59Zm-15-39.08,2.78-.64.44,4.85-5.77-.51ZM17.79,31.07,20,35.85h-.27l-5.77,1.28-9.1-3.58L3.95,29c2.76.93,8.07,1.59,13.86,2.12ZM4.42,42.16c1.11-1.72,13.6.57,13.6.57l-4.83.38S11.3,48.6,9.42,51s-5.33,1.53-5.33,1.53-.76-8.61.35-10.32ZM2.53,54.36c-.7,2,2.89,3.42,17.65,5.11-7.69.14-22.73-1.92-17.63-5.11Z" transform="translate(0.03 0)" style="fill:url(#Безымянный_градиент)"/></svg>