<svg xmlns="http://www.w3.org/2000/svg" xmlns:xlink="http://www.w3.org/1999/xlink" viewBox="0 0 454.76 61.52"><defs><linearGradient id="Безымянный_градиент_14" x1="256.82" y1="232.08" x2="257.45" y2="302.65" gradientUnits="userSpaceOnUse"><stop offset="0" stop-color="#e81818"/><stop offset="1" stop-color="#9b0202"/></linearGradient></defs><title>logo</title><g style="isolation:isolate"><g id="Слой_1" data-name="Слой 1"><path d="M211.91,293.42s-14.21-.38-16-.64a2.44,2.44,0,0,1-3,1.15s-4.44-.89-6.33-1.53-1-2.94-1-2.94,1.67-4.47,3-7.54,3.22-2.43,3.22-2.43L212,280v-6.76l-20-1.12-1.81-4.67c10.7.86,22,1.18,22,1.18L212,251.4l-29.75,1.12,6.66-13.63,155.85-1.15s-145-1.5-150.35-1.6-5.24.19-6.58,1.63-7.24,14.75-7.24,14.75l-.67-1.63.67-1c1-4.21-.78-3.19-2.78-3.32s-2.78.64-4,2.55,3.44,2.68,3.44,2.68,1-.13,1.22,1.92a23.53,23.53,0,0,0-8.1,8.94c-2.33,4.47-.33,29.88,0,32.57s13.1,2.43,13.1,2.43l59.83-1-31.41-1.53Zm-15-39.08,2.78-.64.44,4.85-5.77-.51Zm-9.83,12.85,2.19,4.78H189l-5.77,1.28-9.1-3.58-.89-4.6C176,266,181.31,266.66,187.1,267.19Zm-13.37,11.09c1.11-1.72,13.6.57,13.6.57l-4.83.38s-1.89,5.49-3.77,7.85-5.33,1.53-5.33,1.53S172.62,280,173.73,278.29Zm-1.89,12.2c-.7,2,2.89,3.42,17.65,5.11C181.78,295.73,166.74,293.67,171.84,290.48Z" transform="translate(-169.29 -236.12)" style="fill:url(#Безымянный_градиент_14)"/><g style="opacity:0.30000000000000004;mix-blend-mode:multiply"><path d="M249.76,280.23a46.16,46.16,0,0,0,6.41-2.1l-1.71,9.75a35.78,35.78,0,0,1-13.76,2.72q-7.85,0-11.31-4.49t-2-12.7a40.35,40.35,0,0,1,5.1-13.77l-3.9-1.33h18.09a21.06,21.06,0,0,0-4.16,5.53,29.69,29.69,0,0,0-3.06,9q-.71,4,.63,6t4.51,2A22.94,22.94,0,0,0,249.76,280.23Zm6-35.07a25.21,25.21,0,0,0-5.76.69H231.58l10.3,3.51a28.57,28.57,0,0,0-6.07,5.51h30l1.3-2a4.11,4.11,0,0,0-1.85-6.09A25.91,25.91,0,0,0,255.77,245.16ZM230.44,257h30.32l-30.23-.52Z" transform="translate(-169.29 -236.12)"/></g><path d="M249.76,279.23a46.16,46.16,0,0,0,6.41-2.1l-1.71,9.75a35.78,35.78,0,0,1-13.76,2.72q-7.85,0-11.31-4.49t-2-12.7a40.35,40.35,0,0,1,5.1-13.77l-3.9-1.33h18.09a21.06,21.06,0,0,0-4.16,5.53,29.69,29.69,0,0,0-3.06,9q-.71,4,.63,6t4.51,2A22.94,22.94,0,0,0,249.76,279.23Zm6-35.07a25.21,25.21,0,0,0-5.76.69H231.58l10.3,3.51a28.57,28.57,0,0,0-6.07,5.51h30l1.3-2a4.11,4.11,0,0,0-1.85-6.09A25.91,25.91,0,0,0,255.77,244.16ZM230.44,256h30.32l-30.23-.52Z" transform="translate(-169.29 -236.12)" style="fill:#fff"/><g style="opacity:0.30000000000000004;mix-blend-mode:multiply"><path d="M540.11,258.32a25.25,25.25,0,0,1-.39,3.83,40.66,40.66,0,0,1-5.57,14.69,30.5,30.5,0,0,1-10.08,10.21,24.56,24.56,0,0,1-12.88,3.55q-8.12,0-11.76-4.5t-2.24-12.5a39.76,39.76,0,0,1,5.26-14l-3.86-1.32h18a23.85,23.85,0,0,0-4.35,6.13,32.07,32.07,0,0,0-3.08,9.09q-1.28,7.31,4.76,7.31a8.88,8.88,0,0,0,5.77-2.51,21.79,21.79,0,0,0,5-6.76,33.3,33.3,0,0,0,3-9.3,10,10,0,0,0,0-4Zm-34.21-3.44h34a11.59,11.59,0,0,0-2.3-5.24q-3.58-4.49-11.43-4.48a25.82,25.82,0,0,0-5.81.69h-18.7L512,249.41A29.55,29.55,0,0,0,505.9,254.88Zm-5.15,1.59-.09.52H531Z" transform="translate(-169.29 -236.12)"/></g><path d="M540.11,257.32a25.25,25.25,0,0,1-.39,3.83,40.66,40.66,0,0,1-5.57,14.69,30.5,30.5,0,0,1-10.08,10.21,24.56,24.56,0,0,1-12.88,3.55q-8.12,0-11.76-4.5t-2.24-12.5a39.76,39.76,0,0,1,5.26-14l-3.86-1.32h18a23.85,23.85,0,0,0-4.35,6.13,32.07,32.07,0,0,0-3.08,9.09q-1.28,7.31,4.76,7.31a8.88,8.88,0,0,0,5.77-2.51,21.79,21.79,0,0,0,5-6.76,33.3,33.3,0,0,0,3-9.3,10,10,0,0,0,0-4Zm-34.21-3.44h34a11.59,11.59,0,0,0-2.3-5.24q-3.58-4.49-11.43-4.48a25.82,25.82,0,0,0-5.81.69h-18.7L512,248.41A29.55,29.55,0,0,0,505.9,253.88Zm-5.15,1.59-.09.52H531Z" transform="translate(-169.29 -236.12)" style="fill:#fff"/><g style="opacity:0.30000000000000004;mix-blend-mode:multiply"><path d="M453.63,258.32a25.25,25.25,0,0,1-.39,3.83,40.66,40.66,0,0,1-5.57,14.69,30.5,30.5,0,0,1-10.08,10.21,24.56,24.56,0,0,1-12.88,3.55q-8.12,0-11.76-4.5t-2.24-12.5a39.76,39.76,0,0,1,5.26-14l-3.86-1.32h18a23.85,23.85,0,0,0-4.35,6.13,32.07,32.07,0,0,0-3.08,9.09q-1.28,7.31,4.76,7.31a8.88,8.88,0,0,0,5.77-2.51,21.79,21.79,0,0,0,5-6.76,33.3,33.3,0,0,0,3-9.3,10,10,0,0,0,0-4Zm-34.21-3.44h34a11.59,11.59,0,0,0-2.3-5.24q-3.58-4.49-11.43-4.48a25.82,25.82,0,0,0-5.81.69h-18.7l10.41,3.55A29.55,29.55,0,0,0,419.41,254.88Zm-5.15,1.59-.09.52H444.5Z" transform="translate(-169.29 -236.12)"/></g><path d="M453.63,257.32a25.25,25.25,0,0,1-.39,3.83,40.66,40.66,0,0,1-5.57,14.69,30.5,30.5,0,0,1-10.08,10.21,24.56,24.56,0,0,1-12.88,3.55q-8.12,0-11.76-4.5t-2.24-12.5a39.76,39.76,0,0,1,5.26-14l-3.86-1.32h18a23.85,23.85,0,0,0-4.35,6.13,32.07,32.07,0,0,0-3.08,9.09q-1.28,7.31,4.76,7.31a8.88,8.88,0,0,0,5.77-2.51,21.79,21.79,0,0,0,5-6.76,33.3,33.3,0,0,0,3-9.3,10,10,0,0,0,0-4Zm-34.21-3.44h34a11.59,11.59,0,0,0-2.3-5.24q-3.58-4.49-11.43-4.48a25.82,25.82,0,0,0-5.81.69h-18.7l10.41,3.55A29.55,29.55,0,0,0,419.41,253.88Zm-5.15,1.59-.09.52H444.5Z" transform="translate(-169.29 -236.12)" style="fill:#fff"/><g style="opacity:0.30000000000000004;mix-blend-mode:multiply"><path d="M555.94,250.45l-11.69-4h24.91q7.61,0,11.13,3a7.9,7.9,0,0,1,2.68,6H554Zm14.87,8.87a7.41,7.41,0,0,1-2.5,4.61,7.33,7.33,0,0,1-4.85,1.64h-1.54l2.56-6.64h-16l3.66,1.25L540.42,290.6h11.81l6.22-16.06h2.2l3.08,16.06H576.6l-.7-2.9-4-15.58a17.38,17.38,0,0,0,7.31-5.35,18,18,0,0,0,3.5-7.85H570.85C570.84,259.06,570.83,259.18,570.81,259.32Zm-20.23-1.73h30.3l-30.21-.52Z" transform="translate(-169.29 -236.12)"/></g><path d="M555.94,249.45l-11.69-4h24.91q7.61,0,11.13,3a7.9,7.9,0,0,1,2.68,6H554Zm14.87,8.87a7.41,7.41,0,0,1-2.5,4.61,7.33,7.33,0,0,1-4.85,1.64h-1.54l2.56-6.64h-16l3.66,1.25L540.42,289.6h11.81l6.22-16.06h2.2l3.08,16.06H576.6l-.7-2.9-4-15.58a17.38,17.38,0,0,0,7.31-5.35,18,18,0,0,0,3.5-7.85H570.85C570.84,258.06,570.83,258.18,570.81,258.32Zm-20.23-1.73h30.3l-30.21-.52Z" transform="translate(-169.29 -236.12)" style="fill:#fff"/><g style="opacity:0.30000000000000004;mix-blend-mode:multiply"><path d="M623.41,252.43l-1.54,2.45H596.77a15.72,15.72,0,0,1,1.9-3,16.35,16.35,0,0,1,3.46-3.19l-8.21-2.8h14.48a21,21,0,0,1,5.09-.63,25.82,25.82,0,0,1,7.79,1.12A4.1,4.1,0,0,1,623.41,252.43Zm-12.28,11.84a17.22,17.22,0,0,1-3.25-3.43,3.82,3.82,0,0,1-.55-2.52H590.91l4.44,1.52a12.11,12.11,0,0,0,.57,5.61,15.35,15.35,0,0,0,4.12,5.8,41.94,41.94,0,0,1,3,3.13,5,5,0,0,1,.78,1.42,3.09,3.09,0,0,1,.09,1.52,4,4,0,0,1-1.61,2.66,6,6,0,0,1-3.54.94,17.32,17.32,0,0,1-5.75-1.09,21.48,21.48,0,0,1-5.34-2.69l-1.85,10.57a13.5,13.5,0,0,0,4.72,2.16,24.19,24.19,0,0,0,6.15.74q7.94,0,13-3.73A15.75,15.75,0,0,0,616,276.44a11.7,11.7,0,0,0-.56-6.64A15,15,0,0,0,611.13,264.27ZM593,257h26.18l-26.09-.52Z" transform="translate(-169.29 -236.12)"/></g><path d="M623.41,251.43l-1.54,2.45H596.77a15.72,15.72,0,0,1,1.9-3,16.35,16.35,0,0,1,3.46-3.19l-8.21-2.8h14.48a21,21,0,0,1,5.09-.63,25.82,25.82,0,0,1,7.79,1.12A4.1,4.1,0,0,1,623.41,251.43Zm-12.28,11.84a17.22,17.22,0,0,1-3.25-3.43,3.82,3.82,0,0,1-.55-2.52H590.91l4.44,1.52a12.11,12.11,0,0,0,.57,5.61,15.35,15.35,0,0,0,4.12,5.8,41.94,41.94,0,0,1,3,3.13,5,5,0,0,1,.78,1.42,3.09,3.09,0,0,1,.09,1.52,4,4,0,0,1-1.61,2.66,6,6,0,0,1-3.54.94,17.32,17.32,0,0,1-5.75-1.09,21.48,21.48,0,0,1-5.34-2.69l-1.85,10.57a13.5,13.5,0,0,0,4.72,2.16,24.19,24.19,0,0,0,6.15.74q7.94,0,13-3.73A15.75,15.75,0,0,0,616,275.44a11.7,11.7,0,0,0-.56-6.64A15,15,0,0,0,611.13,263.27ZM593,256h26.18l-26.09-.52Z" transform="translate(-169.29 -236.12)" style="fill:#fff"/><g style="opacity:0.30000000000000004;mix-blend-mode:multiply"><path d="M361.2,250.45l-11.69-4h24a4.12,4.12,0,0,1,4.06,4.83l-.73,4.2H359.26Zm31.86-4-5.74,9h18.11l1.33-3.41a4.12,4.12,0,0,0-3.84-5.62Zm-39.28,12.47,3.66,1.25L345.69,290.6H356.2l6.25-16.21q1.07-2.87,5.3-15.46Zm31.35,0-12,18.87h-.24l3.3-18.87H368l-5.54,31.67h11.17l20.1-31.67Zm8,1.93q-2.85,6.28-5.56,13.16l-6.43,16.58h10.6l12.32-31.67H394Zm-38-3.27H402l-46.76-.52Z" transform="translate(-169.29 -236.12)"/></g><path d="M361.2,249.45l-11.69-4h24a4.12,4.12,0,0,1,4.06,4.83l-.73,4.2H359.26Zm31.86-4-5.74,9h18.11l1.33-3.41a4.12,4.12,0,0,0-3.84-5.62Zm-39.28,12.47,3.66,1.25L345.69,289.6H356.2l6.25-16.21q1.07-2.87,5.3-15.46Zm31.35,0-12,18.87h-.24l3.3-18.87H368l-5.54,31.67h11.17l20.1-31.67Zm8,1.93q-2.85,6.28-5.56,13.16l-6.43,16.58h10.6l12.32-31.67H394Zm-38-3.27H402l-46.76-.52Z" transform="translate(-169.29 -236.12)" style="fill:#fff"/><g style="opacity:0.30000000000000004;mix-blend-mode:multiply"><path d="M318.9,252.07l-1.32,3.42H307.05l3.51-9h4.5A4.12,4.12,0,0,1,318.9,252.07Zm-40.15,3.42H297l-.62-5.38a4.12,4.12,0,0,0-4.1-3.65H269.49l11.26,3.84Zm24.62,9.45q-1.56,4.08-3.68,11.2h-.27l-2-17.21H273.76L277,260,265.18,290.6h10.51l7.12-18.42q1.52-3.83,3.93-12.62H287l3.3,31H304l12.24-31.67H305.71Zm-27.55-7.35h38.78l-38.69-.52Z" transform="translate(-169.29 -236.12)"/></g><path d="M318.9,251.07l-1.32,3.42H307.05l3.51-9h4.5A4.12,4.12,0,0,1,318.9,251.07Zm-40.15,3.42H297l-.62-5.38a4.12,4.12,0,0,0-4.1-3.65H269.49l11.26,3.84Zm24.62,9.45q-1.56,4.08-3.68,11.2h-.27l-2-17.21H273.76L277,259,265.18,289.6h10.51l7.12-18.42q1.52-3.83,3.93-12.62H287l3.3,31H304l12.24-31.67H305.71Zm-27.55-7.35h38.78l-38.69-.52Z" transform="translate(-169.29 -236.12)" style="fill:#fff"/><g style="opacity:0.30000000000000004;mix-blend-mode:multiply"><path d="M482.31,257.59H469.38l.09-.52Zm-15,1.34,4.16,1.42L459.88,290.6h11.81l12.13-31.67H467.32Zm0-12.47H454l11.68,4-2,5h31l1.34-3.39a4.12,4.12,0,0,0-3.83-5.64Z" transform="translate(-169.29 -236.12)"/></g><path d="M482.31,256.59H469.38l.09-.52Zm-15,1.34,4.16,1.42L459.88,289.6h11.81l12.13-31.67H467.32Zm0-12.47H454l11.68,4-2,5h31l1.34-3.39a4.12,4.12,0,0,0-3.83-5.64Z" transform="translate(-169.29 -236.12)" style="fill:#fff"/></g></g></svg>