<svg id="Слой_1" data-name="Слой 1" xmlns="http://www.w3.org/2000/svg" viewBox="0 0 659.07 875.09"><title>phone-red</title><path d="M390.7,353.3c-120.3,69.5,63.2,413.6,194.9,337.6L707.7,902.3c-55.6,32.1-102.5,52.3-166.9,15.5C362,815.6,165.2,474.9,170.8,271.7c1.9-70.6,43.6-98.3,97.9-129.7,23.3,40.4,98.6,170.8,122,211.3Zm50.4-5.7a27.34,27.34,0,0,1-37.3-10l-115-199.3a27.34,27.34,0,0,1,10-37.3l60.5-34.9a27.34,27.34,0,0,1,37.3,10L511.7,275.4a27.2,27.2,0,0,1-10,37.2ZM755.5,892.1a27.34,27.34,0,0,1-37.3-10l-115-199.3a27.34,27.34,0,0,1,10-37.3l60.5-34.9a27.34,27.34,0,0,1,37.3,10L826.1,819.9a27.34,27.34,0,0,1-10,37.3Z" transform="translate(-170.68 -62.45)" style="fill:#a20201"/></svg>